# xmcd
#
# Track frame offsets:
#	150
#	19311
#	39200
#	48819
#	64138
#	76293
#	93148
#	109790
#	124689
#	136911
#	151262
#	164253
#	179128
#	183081
#	203799
#	215415
#	228291
#	242063
#	256566
#	271865
#	284624
#
# Disc length: 3980 seconds
#
# Revision: 3
# Processed by: cddbd v1.5.2PL0 Copyright (c) Steve Scherf et al.
# Submitted via: EasyCDDAExtractor 16.0.9.1
#
DISCID=150f8a15
DTITLE=Michal Tučný - Starýho psa novým kouskům nenaučíš
DYEAR=1987
DGENRE=Country
TTITLE0=Starýho psa novým kouskům nenaučíš
TTITLE1=Karolína
TTITLE2=Den "D"
TTITLE3=S proudem si plout
TTITLE4=Pony Express
TTITLE5=Adios Amigos
TTITLE6=20. století má na kahánku
TTITLE7=Vzdušné zámky
TTITLE8=Fidlej celej den
TTITLE9=Byl jsi nejsprávnější chlap
TTITLE10=Měl jsem kdysi malou chajdu
TTITLE11=Ještě jednou
TTITLE12=Starýho psa novým kouskům nenaučíš
TTITLE13=Kosmickej vandr
TTITLE14=Super píseň pro super špatný den
TTITLE15=Včera jsem tě neviděl
TTITLE16=Strom vánoční
TTITLE17=Tři kamarádi
TTITLE18=Starý dobrý western
TTITLE19=Já světem táh jen tak s celtou
TTITLE20=Country kolotoč
EXTD=YEAR: 1997 ID3G: 2
EXTT0=
EXTT1=
EXTT2=
EXTT3=
EXTT4=
EXTT5=
EXTT6=
EXTT7=
EXTT8=
EXTT9=
EXTT10=
EXTT11=
EXTT12=
EXTT13=
EXTT14=
EXTT15=
EXTT16=
EXTT17=
EXTT18=
EXTT19=
EXTT20=
PLAYORDER=
